<?xml version="1.0" encoding="UTF-8" standalone="no"?>
<svg
   width="512"
   height="512"
   viewBox="0 0 512 512"
   version="1.1"
   id="svg18"
   sodipodi:docname="cfs-spool.svg"
   inkscape:version="1.4.2 (ebf0e940, 2025-05-08)"
   xmlns:inkscape="http://www.inkscape.org/namespaces/inkscape"
   xmlns:sodipodi="http://sodipodi.sourceforge.net/DTD/sodipodi-0.dtd"
   xmlns="http://www.w3.org/2000/svg"
   xmlns:svg="http://www.w3.org/2000/svg">
  <sodipodi:namedview
     id="namedview18"
     pagecolor="#ffffff"
     bordercolor="#000000"
     borderopacity="0.25"
     inkscape:showpageshadow="2"
     inkscape:pageopacity="0.0"
     inkscape:pagecheckerboard="0"
     inkscape:deskcolor="#d1d1d1"
     inkscape:zoom="1.529046"
     inkscape:cx="220.07186"
     inkscape:cy="265.52504"
     inkscape:window-width="1920"
     inkscape:window-height="1027"
     inkscape:window-x="0"
     inkscape:window-y="25"
     inkscape:window-maximized="1"
     inkscape:current-layer="svg18" />
  <!-- Background with rounded corners -->
  <defs
     id="defs2">
    <linearGradient
       id="bgGradient"
       x1="0%"
       y1="0%"
       x2="100%"
       y2="100%">
      <stop
         offset="0%"
         style="stop-color:#4CAF50;stop-opacity:1"
         id="stop1" />
      <stop
         offset="100%"
         style="stop-color:#2E7D32;stop-opacity:1"
         id="stop2" />
    </linearGradient>
  </defs>
  <!-- Rounded rectangle background -->
  <!-- Main spool/coil design -->
  <g
     transform="matrix(0.99982225,0,0,1.0040685,255.95455,257.04024)"
     id="g18">
    <!-- Outer signal waves -->
    <!-- Central spool structure -->
    <g
       id="g2"
       style="display:inline"
       transform="matrix(0.63431115,0,0,0.63661372,-324.41988,-326.99718)">
      <rect
         style="fill:#1aac6e;fill-opacity:1;stroke:#18a96d;stroke-opacity:1"
         id="rect20"
         width="806.81732"
         height="800.49945"
         x="108.36576"
         y="112.02227"
         ry="155.84639" />
      <path
         style="display:inline;fill:#ffffff"
         d="m 485,716.98058 c -17.87372,-2.42667 -41.45168,-9.82306 -60.60723,-19.01246 -25.15032,-12.06522 -46.01198,-30.15578 -63.15947,-54.76984 -12.91906,-18.54442 -17.51935,-26.81891 -24.31442,-43.73405 -7.16196,-17.82847 -8.88959,-23.6189 -12.83062,-43.004 -7.49586,-36.87058 -8.1665,-72.18383 -1.96347,-103.38911 7.14934,-35.96588 24.85094,-78.73379 42.04018,-101.57112 9.33792,-12.40619 30.18576,-33.7222 39.6105,-40.5 21.77406,-15.65882 50.42019,-27.0761 79.39378,-31.6434 15.49593,-2.44273 48.38981,-2.45922 61.83075,-0.031 28.4737,5.14401 57.01781,16.07577 77.09982,29.52752 14.0959,9.44202 40.80669,36.78124 54.4411,55.72197 10.04182,13.94995 23.2791,43.49604 29.9838,66.92492 10.89419,38.06863 11.28948,94.03036 0.92533,131 -7.12486,25.41487 -17.72233,48.46385 -31.91132,69.40558 C 663.60608,649.51714 661,654.31668 661,658.68106 c 0,8.23827 6.83579,16.98348 15.95923,20.41707 4.59778,1.73036 7.65511,2.0694 17.96406,1.99209 14.03115,-0.10522 16.2414,0.66636 18.68893,6.52413 1.88693,4.51604 0.39565,10.43805 -3.38633,13.4475 -2.58136,2.05409 -3.44168,2.13981 -16.22589,1.61683 -7.425,-0.30374 -15.75232,-1.18591 -18.50515,-1.96037 -13.20083,-3.71381 -22.35433,-10.3065 -29.22446,-21.04853 -2.52201,-3.94338 -4.70183,-7.31953 -4.84405,-7.50257 -0.14222,-0.18303 -3.10883,1.89868 -6.59246,4.62603 -24.16756,18.92084 -50.85259,31.38408 -80.83388,37.75345 -11.24763,2.3895 -15.00475,2.68866 -37.5,2.98597 -13.75,0.18172 -27.925,-0.0667 -31.5,-0.55208 z m 50.5,-21.02959 c 32.05438,-4.62221 60.32884,-15.35368 80.51355,-30.5586 32.86526,-24.75705 54.20635,-54.42692 66.94601,-93.07297 9.87278,-29.94929 13.15171,-55.6404 11.16316,-87.46567 -1.84443,-29.51887 -7.67358,-53.74591 -19.31032,-80.2573 C 660.92702,372.96207 633.80477,341.76406 605.30427,324.64306 583.00615,311.248 551.87244,301.81438 525.51886,300.46782 L 515.5,299.9559 l 10.24343,3.39852 c 29.86904,9.90984 57.227,31.12254 75.3111,58.39439 9.01207,13.59072 20.70143,37.29789 25.83845,52.40291 10.74956,31.60832 16.01263,73.30935 13.16977,104.34828 -3.1832,34.75472 -10.1461,61.30688 -23.20758,88.49917 -10.45001,21.75555 -19.66997,34.9733 -35.27691,50.57309 -19.03602,19.02729 -37.68925,30.92773 -57.79505,36.87226 l -8.28321,2.44903 6.5,0.0334 c 3.575,0.0184 9.65,-0.42081 13.5,-0.97598 z M 598,661.532 c 0,-0.25741 3.97528,-5.76991 8.83396,-12.25 18.97035,-25.30106 26.77213,-38.7337 34.50651,-59.41127 7.75562,-20.73433 12.26574,-40.43981 14.69534,-64.20637 1.79912,-17.59913 0.75552,-55.82315 -1.93811,-70.988 -5.57341,-31.37757 -13.36925,-53.70172 -26.67161,-76.37677 -6.70611,-11.43115 -7.6018,-12.68367 -21.16431,-29.59574 C 600.6178,341.66597 596,335.47847 596,334.95385 c 0,-5.18863 20.66396,11.69277 36.74217,30.01649 20.9413,23.866 35.96286,57.37191 42.82842,95.52966 2.50467,13.92063 3.06192,50.5376 1.03509,68.01692 -4.37204,37.70445 -18.38021,71.68936 -41.00371,99.47824 C 622.39234,644.2208 598,665.97609 598,661.532 Z m -97.5,24.57442 c 23.29973,-4.8342 44.32429,-16.9379 64.57932,-37.17789 35.31788,-35.29165 55.22896,-89.92945 55.18351,-151.42853 -0.0582,-78.75807 -36.63836,-149.16412 -91.89388,-176.86863 -33.23998,-16.66617 -68.33202,-16.62364 -100.75487,0.12211 -41.2494,21.30448 -73.9942,70.27291 -85.57707,127.97681 -4.46521,22.24488 -5.43756,31.84888 -5.4439,53.76971 -0.007,23.16167 1.49339,34.94282 7.39438,58.07324 6.60102,25.87436 16.41765,48.07865 29.8097,67.42676 9.04329,13.06527 30.06858,34.06689 41.70281,41.65587 12.83406,8.37163 30.48023,15.07618 46.5,17.66739 7.6675,1.24022 30.07022,0.53216 38.5,-1.21684 z m -21.82796,-15.14975 c -3.26269,-2.56644 -3.37023,-3.24725 -5.2056,-32.95667 -2.68962,-43.53741 -2.719,-44.39514 -1.61673,-47.1977 1.58511,-4.03022 5.62621,-6.36212 8.64315,-4.98751 4.87896,2.22301 5.52805,5.40067 8.07902,39.55144 3.08588,41.31187 3.08544,42.06736 -0.0264,45.17922 -2.99003,2.99004 -6.41369,3.13263 -9.87341,0.41122 z m -62.26705,-17.06208 c -1.27632,-1.41061 -1.87513,-3.48015 -1.81451,-6.27116 0.11702,-5.38834 20.02422,-65.23813 22.53439,-67.7483 2.39969,-2.39969 6.09077,-2.39932 8.26289,8.4e-4 3.7079,4.09719 3.19114,7.42989 -5.80403,37.43149 -9.82729,32.77693 -11.12968,36.37917 -13.63824,37.72171 -3.06389,1.63975 -7.50853,1.11118 -9.5405,-1.13458 z m 122.71157,-9.77803 C 536.21011,641.21011 507,581.06922 507,577.99158 c 0,-7.00353 7.79093,-10.47825 12.38336,-5.52293 1.25833,1.35776 8.88684,15.26205 16.95226,30.89844 12.7035,24.62823 14.66438,29.05118 14.66438,33.0768 0,3.60054 -0.55275,5.19977 -2.45455,7.10156 -2.929,2.929 -6.83445,3.16555 -9.42889,0.57111 z M 371.4601,602.9745 c -4.97698,-1.84111 -6.5408,-8.11062 -3.5593,-14.26958 2.10754,-4.35359 6.88514,-8.97022 28.41228,-27.45492 9.94839,-8.54238 12.48987,-10.25 15.25529,-10.25 6.05202,0 8.60619,8.18137 4.49915,14.41143 -3.01605,4.57514 -36.93146,36.34549 -39.9066,37.38263 -1.46921,0.51217 -3.58458,0.59336 -4.70082,0.18044 z m 195.76796,-33.30233 c -10.85043,-7.33031 -21.91624,-14.60277 -24.59068,-16.16102 -8.32965,-4.85325 -11.00519,-12.23425 -6.18283,-17.0566 4.85486,-4.85487 3.94894,-5.29837 51.54545,25.23428 6.15132,3.94601 7.72324,5.49497 8.74143,8.6138 C 598.82782,576.69347 595.00456,583 589.0438,583 c -1.14823,0 -10.96531,-5.99752 -21.81574,-13.32783 z m -105.43968,1.77642 c -9.08585,-2.20288 -19.18803,-7.84824 -25.70369,-14.3639 -23.83716,-23.83716 -30.08242,-68.18822 -14.16424,-100.5882 7.55344,-15.37431 18.24177,-26.85137 30.07955,-32.29919 7.93246,-3.65057 22.16223,-4.25405 31.73655,-1.34594 26.54255,8.06205 42.53563,36.8275 42.61529,76.64864 0.0498,24.91888 -6.36857,41.62939 -22.19844,57.79417 -8.49703,8.67681 -14.08606,12.24288 -22.17658,14.14974 -7.80527,1.83963 -12.6155,1.84074 -20.18844,0.005 z m 19.31482,-33.00196 c 1.4329,-0.74098 4.9946,-3.9571 7.91488,-7.14693 11.64855,-12.72375 15.60168,-29.73661 11.04736,-47.54385 -4.65575,-18.20378 -14.53894,-29.91481 -27.23112,-32.26735 -11.07695,-2.05315 -24.5465,8.00786 -30.80749,23.0115 -2.8258,6.77166 -3.40665,9.53543 -3.783,18 -1.03052,23.17754 8.88366,41.89233 24.92949,47.05885 4.90309,1.57872 13.79252,1.0273 17.92988,-1.11222 z m -132.64865,-5.90118 c -4.3362,-4.33619 -2.78148,-12.68868 2.78909,-14.98389 3.99078,-1.64431 38.8126,-7.56156 44.49821,-7.56156 5.5727,0 8.68949,3.69381 7.92884,9.39675 -0.91192,6.8371 -2.13441,7.38033 -26.28949,11.68214 -12.03466,2.14327 -22.91415,3.90231 -24.17665,3.90898 -1.2625,0.007 -3.4,-1.09242 -4.75,-2.44242 z M 544.6248,504.71491 c -4.09071,-2.99119 -2.76067,-15.26368 1.75179,-16.16402 1.16788,-0.23302 14.62752,-0.68114 29.91032,-0.99582 l 27.78691,-0.57216 2.46309,2.46309 c 1.93652,1.93652 2.46309,3.49417 2.46309,7.28604 0,2.74668 -0.67016,5.77973 -1.5567,7.04545 -1.54934,2.212 -1.69745,2.22251 -31.30887,2.22251 -22.65658,0 -30.17131,-0.30648 -31.50963,-1.28509 z M 378.78586,473.51638 c -26.56588,-10.57055 -28.46829,-11.62329 -29.77518,-16.4767 -1.83709,-6.82244 2.75653,-13.90752 7.98932,-12.32253 5.68796,1.72285 43.7095,19.21131 45.62358,20.9851 3.51531,3.25768 3.37641,10.366 -0.25844,13.22517 -1.44917,1.13992 -3.13667,2.0642 -3.75,2.05395 -0.61333,-0.0103 -9.5365,-3.36949 -19.82928,-7.46499 z m 154.28672,-18.15124 c -2.32715,-2.9585 -2.61281,-6.76515 -0.75817,-10.10354 1.19892,-2.15807 4.92978,-4.98098 35.00538,-26.48633 17.07211,-12.20729 17.81419,-12.57273 21.12532,-10.40319 6.30256,4.12959 7.70489,11.42227 2.96184,15.40268 -1.59882,1.34175 -13.70695,9.58238 -26.90695,18.31252 -15.7912,10.4439 -24.91577,15.87978 -26.67742,15.89285 -1.71723,0.0128 -3.4207,-0.92506 -4.75,-2.61499 z M 394.97872,421.59935 C 376.02948,401.14316 374,398.54634 374,394.75606 c 0,-6.81271 5.48361,-11.85973 10.43466,-9.60388 2.55604,1.16461 29.46478,32.41716 33.31022,38.6874 2.80548,4.57453 2.87154,9.10706 0.18254,12.52556 -3.96348,5.03875 -5.54683,4.01998 -22.9487,-14.76579 z M 508.7329,418.25 c -2.52901,-2.80631 -2.93577,-6.42905 -1.25606,-11.18699 2.02778,-5.74392 28.4805,-55.00448 30.77316,-57.30614 2.56735,-2.57743 5.50724,-2.15347 8.95159,1.29088 5.06856,5.06855 4.16769,7.7838 -12.60308,37.98643 -8.0827,14.5562 -15.82402,27.47832 -17.20293,28.71582 -3.00264,2.69471 -6.50278,2.89674 -8.66268,0.5 z m -68.50964,-5.92119 c -0.7022,-0.28232 -2.17688,-2.27773 -3.27705,-4.43425 C 433.57003,401.27671 417,351.74313 417,348.26842 c 0,-5.91977 6.7183,-9.99347 11.41064,-6.91893 1.93519,1.26799 4.17939,6.9153 11.66753,29.36024 5.92498,17.75953 9.2986,29.42967 9.34665,32.33224 0.12412,7.49855 -3.7996,11.45864 -9.20156,9.28684 z m 30.84932,-9.96367 c -2.48619,-3.16068 -2.53266,-5.17482 -0.57366,-24.86514 0.8208,-8.25 2.13528,-22.41579 2.92107,-31.47953 1.28331,-14.80243 1.65122,-16.65971 3.61514,-18.25 4.07901,-3.30298 10.19273,-2.1643 12.51755,2.33139 1.32633,2.56485 1.22722,5.25726 -0.96186,26.12882 -1.3423,12.79813 -2.73498,26.64432 -3.09484,30.76932 -1.24391,14.25885 -3.11341,18 -8.99483,18 -2.43446,0 -3.9251,-0.72351 -5.42857,-2.63486 z M 223.75397,661.99018 c -10.62952,-5.77124 -36.53046,-45.71092 -47.25246,-72.86406 -9.86643,-24.98645 -16.43764,-65.39948 -15.15952,-93.23129 1.60746,-35.00346 9.94065,-65.87918 26.68903,-98.88688 11.09415,-21.86435 27.55372,-45.73409 34.49409,-50.02347 6.60773,-4.0838 15.60701,-2.09451 19.5162,4.31407 4.9073,8.04482 3.40807,13.05792 -7.34331,24.55439 -13.31894,14.24198 -25.322,35.26896 -34.04897,59.64706 -11.82586,33.0346 -15.15798,71.06724 -9.08379,103.68183 1.76439,9.47369 8.31857,32.81504 11.81854,42.08932 3.15952,8.37213 15.74583,31.76512 21.10002,39.21662 2.37601,3.30673 7.72572,9.76176 11.88824,14.34452 8.69878,9.57701 9.83869,12.70893 7.16946,19.69821 -3.12892,8.19298 -12.16372,11.59899 -19.78753,7.45968 z m 563.01417,0.007 c -4.58321,-2.48895 -7.042,-6.99046 -6.92773,-12.68318 0.11368,-5.66384 1.14133,-7.42941 9.42618,-16.19495 19.11959,-20.22887 37.41897,-59.56666 43.28996,-93.05948 4.39983,-25.10017 4.21618,-50.53075 -0.53484,-74.05984 -5.40953,-26.79034 -11.40345,-43.4538 -22.64789,-62.96253 -7.59864,-13.1834 -10.40915,-17.04078 -19.81306,-27.19311 -10.53223,-11.37044 -12.22856,-17.31695 -7.15069,-25.06677 3.39942,-5.18817 12.63287,-7.3788 18.38959,-4.36291 10.1744,5.33027 35.96261,45.79597 47.17856,74.03049 4.43251,11.1582 9.65535,30.1383 12.2087,44.36715 3.06999,17.10793 3.34753,57.67182 0.50757,74.18768 -6.70114,38.97079 -16.4563,64.29547 -36.20915,94 -7.51877,11.30681 -18.93972,25.58864 -22.6211,28.28757 -3.89905,2.8585 -10.56258,3.17185 -15.0961,0.70988 z M 267.5,620.15478 c -6.59221,-3.12801 -19.4712,-20.16494 -27.83205,-36.81754 -9.33552,-18.59387 -17.5191,-48.66366 -19.1425,-70.33724 -1.27735,-17.05367 2.87501,-43.41738 10.14054,-64.38318 5.12909,-14.80076 10.48678,-25.67877 18.78356,-38.13728 14.22717,-21.36362 19.93377,-25.61531 28.99875,-21.60543 5.10536,2.25834 8.5517,7.76002 8.5517,13.65179 0,4.52958 -1.1803,6.78753 -6.61524,12.65512 -9.19484,9.9268 -19.1079,27.89367 -24.20135,43.86359 -4.39745,13.78768 -6.27964,25.42265 -6.86801,42.45539 -0.81449,23.57875 3.21619,44.02643 12.64692,64.1579 4.71313,10.06097 11.69626,20.96776 17.39003,27.16108 6.34089,6.89724 7.64765,9.20439 7.64765,13.5024 0,11.2081 -10.03295,18.32552 -19.5,13.8334 z m 477.76969,0.36263 c -5.43196,-2.36142 -9.25334,-10.76241 -7.83432,-17.22314 0.34574,-1.57415 3.9731,-6.89453 8.0608,-11.82307 8.09207,-9.75662 15.38825,-22.75587 20.94461,-37.31602 10.33853,-27.09155 11.09313,-61.76892 2.02938,-93.25885 -5.20626,-18.08796 -12.19963,-31.09159 -24.40689,-45.38276 -5.94092,-6.95508 -7.63423,-11.75947 -6.08454,-17.26357 1.8864,-6.70004 6.21742,-10.25 12.50519,-10.25 5.0585,0 8.45015,2.03061 13.66852,8.18347 15.59668,18.38968 25.27187,37.23071 32.84371,63.95838 4.98245,17.58745 6.40942,30.10194 5.74045,50.34368 -0.6065,18.35128 -2.4085,27.75176 -9.26416,48.32808 -7.65478,22.97478 -16.20729,38.68961 -29.30186,53.84077 -7.84706,9.07951 -12.06565,10.8345 -18.90089,7.86303 z"
         id="path9" />
    </g>
  </g>
</svg>
